<svg width="123" height="26" viewBox="0 0 123 26" fill="none" xmlns="http://www.w3.org/2000/svg">
<g id="_Client logo" clip-path="url(#clip0_436_790)">
<path id="Vector" d="M43.8629 14.9753L43.1358 17.0311H43.0752C42.954 16.5675 42.7318 15.8621 42.3682 15.0156L38.4699 5.24042H34.6523V20.8203H37.1772V11.2063C37.1772 10.6017 37.1772 9.91639 37.157 9.06987C37.1368 8.64662 37.0964 8.32414 37.0762 8.08228H37.1368C37.258 8.68693 37.3994 9.13034 37.5004 9.41251L42.1864 20.78H43.9639L48.6096 9.31173C48.7106 9.04972 48.8116 8.52569 48.9126 8.08228H48.9732C48.9126 9.23111 48.8722 10.259 48.852 10.8838V20.7598H51.5384V5.20011H47.8623L43.8629 14.9753ZM54.0835 9.5939H56.7093V20.7598H54.0835V9.5939ZM55.4166 4.87763C54.9722 4.87763 54.6086 5.03887 54.3057 5.32104C54.0027 5.60321 53.8411 5.966 53.8411 6.40941C53.8411 6.83266 54.0027 7.19546 54.3057 7.47763C54.6086 7.7598 54.9722 7.90088 55.4166 7.90088C55.8609 7.90088 56.2447 7.73964 56.5275 7.47763C56.8305 7.19546 56.9921 6.83266 56.9921 6.40941C56.9921 5.98615 56.8305 5.62336 56.5275 5.32104C56.2649 5.03887 55.8811 4.87763 55.4166 4.87763ZM66.0209 9.49313C65.5361 9.39235 65.0311 9.33189 64.5464 9.33189C63.3547 9.33189 62.2639 9.59391 61.355 10.1179C60.446 10.642 59.7189 11.3675 59.2543 12.2745C58.7696 13.2017 58.5272 14.2699 58.5272 15.4993C58.5272 16.5675 58.7696 17.5148 59.2341 18.3815C59.6987 19.228 60.3451 19.9133 61.2136 20.3769C62.0417 20.8404 63.0113 21.0823 64.102 21.0823C65.3543 21.0823 66.4249 20.8203 67.2732 20.3365L67.2934 20.3164V17.8978L67.1924 17.9784C66.8086 18.2606 66.3643 18.5024 65.9199 18.6435C65.4553 18.8048 65.0312 18.8854 64.6676 18.8854C63.6172 18.8854 62.7891 18.5831 62.2033 17.9179C61.5974 17.273 61.2944 16.3862 61.2944 15.2776C61.2944 14.1288 61.5974 13.2218 62.2235 12.5567C62.8497 11.8916 63.6778 11.5489 64.6878 11.5489C65.5361 11.5489 66.4047 11.8311 67.1924 12.3955L67.2934 12.4761V9.91639L67.2732 9.89623C66.9298 9.75515 66.546 9.5939 66.0209 9.49313ZM74.6861 9.41251C74.0398 9.41251 73.4338 9.61406 72.9086 10.0373C72.4643 10.4001 72.1613 10.9241 71.8987 11.5489H71.8785V9.5939H69.2527V20.7598H71.8785V15.0559C71.8785 14.0885 72.0805 13.2823 72.5249 12.6978C72.9692 12.0931 73.5348 11.7908 74.2215 11.7908C74.4639 11.7908 74.7063 11.8513 75.0093 11.8916C75.2921 11.9722 75.4941 12.0528 75.6354 12.1536L75.7364 12.2342V9.61406L75.6758 9.5939C75.4941 9.47297 75.1305 9.41251 74.6861 9.41251ZM81.8364 9.35205C79.9984 9.35205 78.5239 9.89623 77.4937 10.9644C76.4434 12.0327 75.9384 13.504 75.9384 15.3582C75.9384 17.0916 76.4636 18.5024 77.4735 19.5303C78.4835 20.5381 79.857 21.0621 81.5739 21.0621C83.3715 21.0621 84.8056 20.5179 85.8358 19.4296C86.8861 18.3412 87.3911 16.89 87.3911 15.0962C87.3911 13.3226 86.9063 11.9117 85.9166 10.8838C84.9672 9.85592 83.5735 9.35205 81.8364 9.35205ZM83.9371 17.9381C83.4523 18.5629 82.6848 18.8652 81.7355 18.8652C80.7861 18.8652 80.0186 18.5629 79.4732 17.8978C78.9278 17.273 78.6653 16.366 78.6653 15.2172C78.6653 14.028 78.948 13.121 79.4732 12.4761C80.0186 11.8311 80.7659 11.5086 81.7153 11.5086C82.6444 11.5086 83.3715 11.811 83.8967 12.4358C84.4219 13.0606 84.7047 13.9675 84.7047 15.1567C84.6643 16.366 84.4421 17.3133 83.9371 17.9381ZM93.2487 14.2296C92.4206 13.8869 91.8954 13.6249 91.653 13.4032C91.451 13.2017 91.35 12.9195 91.35 12.5567C91.35 12.2544 91.4712 11.952 91.7742 11.7505C92.0772 11.5489 92.4205 11.4482 92.9255 11.4482C93.3699 11.4482 93.8345 11.5288 94.2788 11.6497C94.7232 11.7706 95.1272 11.952 95.4503 12.1939L95.5513 12.2745V9.81561L95.4907 9.79546C95.1878 9.67453 94.7838 9.5536 94.299 9.45282C93.8143 9.3722 93.3699 9.33189 93.0063 9.33189C91.754 9.33189 90.7239 9.63421 89.9159 10.2993C89.108 10.9241 88.7242 11.7706 88.7242 12.7582C88.7242 13.2823 88.805 13.7458 88.9868 14.1288C89.1686 14.5117 89.4311 14.8745 89.7947 15.1769C90.1583 15.459 90.6835 15.7815 91.4106 16.0838C92.0166 16.3458 92.4811 16.5474 92.7639 16.7086C93.0467 16.8699 93.2285 17.0513 93.3699 17.1924C93.4709 17.3536 93.5315 17.5551 93.5315 17.8172C93.5315 18.5629 92.9659 18.9257 91.8146 18.9257C91.3702 18.9257 90.9056 18.8451 90.3603 18.6637C89.8149 18.4823 89.31 18.2203 88.8858 17.9179L88.7848 17.8373V20.397L88.8454 20.4172C89.2292 20.5986 89.6937 20.7195 90.2593 20.8606C90.8249 20.9613 91.3298 21.042 91.7742 21.042C93.1275 21.042 94.2384 20.7396 95.0262 20.0745C95.8341 19.4296 96.2583 18.6032 96.2583 17.535C96.2583 16.7893 96.0563 16.1241 95.6119 15.6203C95.0262 15.1365 94.299 14.6327 93.2487 14.2296ZM103.186 9.35205C101.348 9.35205 99.8739 9.89623 98.8437 10.9644C97.8136 12.0327 97.2884 13.504 97.2884 15.3582C97.2884 17.0916 97.8136 18.5024 98.8235 19.5303C99.8335 20.5381 101.207 21.0621 102.924 21.0621C104.722 21.0621 106.156 20.5179 107.186 19.4296C108.236 18.3412 108.741 16.89 108.741 15.0962C108.741 13.3226 108.256 11.9117 107.267 10.8838C106.317 9.85592 104.924 9.35205 103.186 9.35205ZM105.267 17.9381C104.782 18.5629 104.015 18.8652 103.065 18.8652C102.096 18.8652 101.348 18.5629 100.803 17.8978C100.258 17.273 99.995 16.366 99.995 15.2172C99.995 14.028 100.278 13.121 100.803 12.4761C101.348 11.8311 102.096 11.5086 103.045 11.5086C103.954 11.5086 104.701 11.811 105.227 12.4358C105.752 13.0606 106.034 13.9675 106.034 15.1567C106.034 16.366 105.772 17.3133 105.267 17.9381ZM122.779 11.7505V9.5939H120.133V6.28848L120.052 6.30863L117.548 7.05437L117.487 7.07453V9.5939H113.528V8.18305C113.528 7.53809 113.69 7.03422 113.973 6.71173C114.255 6.38925 114.679 6.22801 115.205 6.22801C115.568 6.22801 115.952 6.30863 116.376 6.49003L116.477 6.55049V4.27298L116.417 4.25282C116.053 4.13189 115.568 4.05127 114.942 4.05127C114.154 4.05127 113.468 4.23266 112.841 4.53499C112.215 4.87763 111.751 5.34119 111.407 5.966C111.064 6.57065 110.882 7.25592 110.882 8.04197V9.5939H109.044V11.7303H110.882V20.7598H113.528V11.7505H117.487V17.4947C117.487 19.8528 118.598 21.042 120.82 21.042C121.183 21.042 121.567 20.9815 121.931 20.921C122.315 20.8404 122.597 20.7396 122.759 20.659L122.779 20.6389V18.4823L122.678 18.5629C122.517 18.6637 122.375 18.7443 122.133 18.8048C121.931 18.8652 121.749 18.8854 121.608 18.8854C121.082 18.8854 120.719 18.7644 120.456 18.4621C120.214 18.18 120.093 17.7164 120.093 17.0311V11.7505H122.779Z" fill="white"/>
<path id="Vector_2" d="M0.799805 0H13.1816V12.355H0.799805V0Z" fill="#F25022"/>
<path id="Vector_3" d="M14.4746 0H26.8564V12.355H14.4746V0Z" fill="#7FBA00"/>
<path id="Vector_4" d="M0.799805 13.645H13.1816V26.0001H0.799805V13.645Z" fill="#00A4EF"/>
<path id="Vector_5" d="M14.4746 13.645H26.8564V26.0001H14.4746V13.645Z" fill="#FFB900"/>
</g>
<defs>
<clipPath id="clip0_436_790">
<rect width="122" height="26" fill="white" transform="translate(0.799805)"/>
</clipPath>
</defs>
</svg>
