<svg width="85" height="28" viewBox="0 0 85 28" fill="none" xmlns="http://www.w3.org/2000/svg">
<g id="_Client logo" clip-path="url(#clip0_436_783)">
<rect width="84" height="28" transform="translate(0.200195)" fill="white"/>
<path id="Vector" d="M35.9467 14.3593C35.9467 18.2458 32.8616 21.1098 29.0754 21.1098C25.2892 21.1098 22.2041 18.2458 22.2041 14.3593C22.2041 10.4454 25.2892 7.60889 29.0754 7.60889C32.8616 7.60889 35.9467 10.4454 35.9467 14.3593ZM32.9388 14.3593C32.9388 11.9306 31.1507 10.2689 29.0754 10.2689C27.0001 10.2689 25.212 11.9306 25.212 14.3593C25.212 16.7637 27.0001 18.4498 29.0754 18.4498C31.1507 18.4498 32.9388 16.7606 32.9388 14.3593Z" fill="#EA4335"/>
<path id="Vector_2" d="M50.77 14.3593C50.77 18.2458 47.6848 21.1098 43.8987 21.1098C40.1125 21.1098 37.0273 18.2458 37.0273 14.3593C37.0273 10.4485 40.1125 7.60889 43.8987 7.60889C47.6848 7.60889 50.77 10.4454 50.77 14.3593ZM47.762 14.3593C47.762 11.9306 45.974 10.2689 43.8987 10.2689C41.8234 10.2689 40.0353 11.9306 40.0353 14.3593C40.0353 16.7637 41.8234 18.4498 43.8987 18.4498C45.974 18.4498 47.762 16.7606 47.762 14.3593Z" fill="#FBBC05"/>
<path id="Vector_3" d="M64.9759 8.01671V20.1358C64.9759 25.1211 61.9927 27.1571 58.4659 27.1571C55.1461 27.1571 53.148 24.9689 52.3944 23.1793L55.0133 22.105C55.4796 23.2037 56.6222 24.5002 58.4628 24.5002C60.7203 24.5002 62.1193 23.1276 62.1193 20.5437V19.5728H62.0143C61.3411 20.3915 60.044 21.1067 58.4072 21.1067C54.9824 21.1067 51.8447 18.1667 51.8447 14.3837C51.8447 10.5732 54.9824 7.60889 58.4072 7.60889C60.0409 7.60889 61.338 8.3241 62.0143 9.11845H62.1193V8.01976H64.9759V8.01671ZM62.3324 14.3837C62.3324 12.0067 60.7234 10.2689 58.6759 10.2689C56.6006 10.2689 54.8619 12.0067 54.8619 14.3837C54.8619 16.7363 56.6006 18.4498 58.6759 18.4498C60.7234 18.4498 62.3324 16.7363 62.3324 14.3837Z" fill="#4285F4"/>
<path id="Vector_4" d="M69.6858 0.913086V20.6957H66.752V0.913086H69.6858Z" fill="#34A853"/>
<path id="Vector_5" d="M81.1178 16.5807L83.4525 18.1146C82.699 19.2133 80.8831 21.1063 77.7455 21.1063C73.8543 21.1063 70.9482 18.142 70.9482 14.3559C70.9482 10.3416 73.879 7.60547 77.4088 7.60547C80.9634 7.60547 82.7021 10.3933 83.2703 11.8998L83.5822 12.6668L74.4256 16.4042C75.1266 17.7585 76.2168 18.4494 77.7455 18.4494C79.2772 18.4494 80.3396 17.7068 81.1178 16.5807ZM73.9315 14.152L80.0524 11.6472C79.7157 10.8042 78.7028 10.2168 77.5107 10.2168C75.9821 10.2168 73.8543 11.5468 73.9315 14.152Z" fill="#EA4335"/>
<path id="Vector_6" d="M11.0987 12.6031V9.73915H20.8915C20.9873 10.2383 21.0367 10.8287 21.0367 11.4678C21.0367 13.6165 20.4406 16.2735 18.5198 18.1665C16.6514 20.0839 14.2642 21.1065 11.1018 21.1065C5.24035 21.1065 0.311523 16.4013 0.311523 10.6248C0.311523 4.84828 5.24035 0.143066 11.1018 0.143066C14.3445 0.143066 16.6545 1.39698 18.3901 3.03133L16.3395 5.0522C15.0949 3.90176 13.4087 3.00698 11.0987 3.00698C6.81844 3.00698 3.47079 6.40654 3.47079 10.6248C3.47079 14.8431 6.81844 18.2426 11.0987 18.2426C13.8751 18.2426 15.4562 17.1439 16.4692 16.1457C17.2906 15.3361 17.8311 14.1796 18.0442 12.6L11.0987 12.6031Z" fill="#4285F4"/>
</g>
<defs>
<clipPath id="clip0_436_783">
<rect width="84" height="28" fill="white" transform="translate(0.200195)"/>
</clipPath>
</defs>
</svg>
