<svg width="113" height="26" viewBox="0 0 113 26" fill="none" xmlns="http://www.w3.org/2000/svg">
<g id="_Client logo" clip-path="url(#clip0_436_796)">
<path id="Shape" d="M40.2582 9.24802V10.7215H40.3036C40.8386 9.9326 41.7267 9.00353 43.6953 9.00353C45.2268 9.00353 46.4017 9.77612 46.9052 10.9432H46.9507C47.3808 10.3531 47.8738 9.90652 48.4262 9.59031C49.0801 9.21542 49.8074 9.00027 50.7235 9.00027C52.797 9.00027 54.6327 10.3368 54.6327 13.7076V20.1002H51.4718V14.1542C51.4718 12.446 50.8494 11.4582 49.5556 11.4582C48.6081 11.4582 47.9192 12.0515 47.657 12.7818C47.5661 13.0328 47.5241 13.3751 47.5241 13.6619V20.1035H44.3632V13.9129C44.3632 12.4623 43.7653 11.455 42.489 11.455C41.468 11.455 40.8281 12.2048 40.5659 12.847C40.454 13.1208 40.419 13.437 40.419 13.7336V20.1002H37.2546V9.24802H40.2582ZM70.9479 9.24802V11.2952H71.0353C71.6157 9.73049 72.9934 9.00353 74.2032 9.00353C74.5074 9.00353 74.6752 9.02635 74.92 9.07198V11.9146C74.6298 11.8755 74.3605 11.8364 73.9829 11.8364C72.6123 11.8364 71.6577 12.5796 71.4164 13.7434C71.364 13.9847 71.3465 14.2455 71.3465 14.5454V20.1035H68.1016V9.24802H70.9479ZM79.3257 5.65234V9.06872H82.0671V11.8331H79.3257V15.9113C79.3257 17.2315 79.6859 17.8705 80.7558 17.8705C81.2593 17.8705 81.63 17.8118 81.9517 17.7368L81.9936 20.0285C81.5635 20.1785 80.6474 20.3415 79.7173 20.3415C78.6229 20.3415 77.7103 19.9861 77.1543 19.4352C76.518 18.8061 76.2242 17.7759 76.2242 16.309V5.65234H79.3257ZM35.0517 20.1002H31.9048V5.65234H35.0517V20.1002ZM26.6599 16.2242C26.6599 16.4231 26.6424 16.6317 26.583 16.811C26.3382 17.564 25.5025 18.1997 24.4605 18.1997C23.5899 18.1997 22.8975 17.7401 22.8975 16.7654C22.8975 15.2756 24.6598 14.8616 26.6634 14.8714V16.2242H26.6599ZM29.8033 13.6261C29.8033 11.1648 28.6774 9.00353 24.8696 9.00353C22.915 9.00353 21.3625 9.51533 20.5164 9.97172L21.1353 11.9472C21.908 11.4908 23.1423 11.1159 24.3102 11.1159C26.2438 11.1127 26.5585 12.1363 26.5585 12.7915V12.948C22.3451 12.9415 19.6842 14.3009 19.6842 17.0718C19.6842 18.7637 21.0373 20.348 23.3941 20.348C24.8451 20.348 26.055 19.8101 26.7823 18.9462H26.8522C26.8522 18.9462 27.3347 20.8207 29.9852 20.1035C29.8453 19.3211 29.7998 18.4899 29.7998 17.4891V13.6261H29.8033ZM3.87601 5.65234C4.2012 7.18124 5.1243 11.6212 5.1243 11.6212C5.51242 13.4468 5.86908 15.3603 6.13832 16.8729H6.18727C6.44951 15.2658 6.86211 13.7434 7.30269 11.8592L8.85867 5.65234H12.3028L13.7574 12.0189C14.1385 13.7891 14.4428 15.155 14.684 16.8012H14.7295C14.9917 15.1387 15.3344 13.7173 15.7085 11.8983L17.1072 5.65234H20.4115L16.3169 20.1002C13.7085 20.6316 12.7084 19.6536 12.3518 18.1019C11.9951 16.5469 11.2958 13.5902 11.2958 13.5902C10.9357 11.97 10.6559 10.8291 10.4601 9.16652H10.4112C10.1314 10.8128 9.83772 11.9668 9.40415 13.587L7.68731 20.1035C5.0229 20.599 4.0998 19.8655 3.58929 17.8737C3.14872 16.1688 0.400391 5.6556 0.400391 5.6556H3.87601V5.65234ZM62.8567 16.2242C62.8567 16.4231 62.8392 16.6317 62.7798 16.811C62.535 17.564 61.6993 18.1997 60.6574 18.1997C59.7867 18.1997 59.0944 17.7401 59.0944 16.7654C59.0944 15.2756 60.8567 14.8616 62.8602 14.8714V16.2242H62.8567ZM66.0002 13.6261C66.0002 11.1648 64.8743 9.00353 61.0665 9.00353C59.1119 9.00353 57.5594 9.51533 56.7132 9.97172L57.3321 11.9472C58.1048 11.4908 59.3391 11.1159 60.507 11.1159C62.4371 11.1127 62.7553 12.1363 62.7553 12.7915V12.948C58.5454 12.9415 55.8845 14.3009 55.8845 17.0718C55.8845 18.7637 57.2412 20.348 59.5944 20.348C61.042 20.348 62.2553 19.8101 62.9791 18.9462H63.0525C63.0525 18.9462 63.5351 20.8207 66.1855 20.1035C66.0456 19.3211 66.0002 18.4899 66.0002 17.4891V13.6261Z" fill="white"/>
<path id="Shape_2" d="M94.8234 15.1241C95.1336 15.6517 95.1127 16.2406 94.7815 16.5096L89.0586 20.4276C88.4626 20.7646 87.5703 20.3561 87.0649 19.5017C86.5561 18.6439 86.6467 17.6874 87.2427 17.3504L93.5791 14.4705C93.9764 14.3208 94.5132 14.5965 94.8234 15.1241ZM102.355 15.1241C102.669 14.5965 103.202 14.3242 103.6 14.4671L109.939 17.3469C110.535 17.6839 110.623 18.6405 110.117 19.4983C109.608 20.3527 108.713 20.7578 108.12 20.4242L102.397 16.5062C102.069 16.2406 102.045 15.6483 102.355 15.1241ZM98.5876 17.2482C99.2114 17.2482 99.7238 17.5614 99.7935 17.9733L100.41 24.7745C100.41 25.4485 99.6053 26 98.5911 26C97.5803 26 96.7717 25.4485 96.7717 24.7745L97.3851 17.9733C97.4548 17.5614 97.9672 17.2482 98.5876 17.2482ZM102.397 9.49385L108.12 5.5724C108.713 5.2354 109.608 5.64048 110.117 6.4983C110.623 7.35611 110.535 8.31265 109.939 8.64965L103.6 11.5329C103.202 11.6758 102.665 11.4035 102.355 10.8759C102.045 10.3483 102.069 9.75936 102.397 9.49385ZM93.5791 11.5329L87.2427 8.64965C86.6502 8.31265 86.5596 7.35611 87.0649 6.4983C87.5703 5.64048 88.4661 5.2354 89.0586 5.5724L94.7815 9.49385C95.1127 9.75596 95.1336 10.3483 94.8234 10.8759C94.5132 11.4035 93.9764 11.6758 93.5791 11.5329ZM97.3851 8.02671L96.7717 1.22545C96.7717 0.551453 97.5768 0 98.5911 0C99.6053 0 100.41 0.551453 100.41 1.22545L99.7935 8.02671C99.7238 8.43519 99.2114 8.75177 98.5876 8.75177C97.9672 8.75177 97.4548 8.43519 97.3851 8.02671ZM111.665 20.4004V20.2302H111.822C111.874 20.2302 111.909 20.2642 111.909 20.3153C111.909 20.3629 111.874 20.4004 111.822 20.4004H111.665ZM111.536 20.7101C111.536 20.7272 111.55 20.7442 111.571 20.7442H111.637C111.654 20.7442 111.672 20.7272 111.672 20.7101V20.5161H111.78L111.867 20.7203C111.874 20.734 111.884 20.7442 111.898 20.7442H111.978C112.003 20.7442 112.02 20.7203 112.01 20.6965C111.978 20.6352 111.947 20.5706 111.916 20.5059C111.968 20.4889 112.048 20.4378 112.048 20.3153C112.048 20.1859 111.94 20.111 111.832 20.111H111.571C111.553 20.111 111.536 20.128 111.536 20.1451V20.7101ZM111.253 20.4276C111.253 20.1519 111.483 19.9272 111.766 19.9272C112.048 19.9272 112.278 20.1485 112.278 20.4276C112.278 20.7033 112.052 20.928 111.766 20.928C111.48 20.928 111.253 20.7033 111.253 20.4276ZM111.131 20.4276C111.131 20.768 111.414 21.0471 111.766 21.0471C112.114 21.0471 112.4 20.768 112.4 20.4276C112.4 20.0872 112.114 19.8081 111.766 19.8081C111.414 19.8081 111.131 20.0872 111.131 20.4276Z" fill="#FFC124"/>
</g>
<defs>
<clipPath id="clip0_436_796">
<rect width="112" height="26" fill="white" transform="translate(0.400391)"/>
</clipPath>
</defs>
</svg>
