<svg width="87" height="24" viewBox="0 0 87 24" fill="none" xmlns="http://www.w3.org/2000/svg">
<g id="_Client logo" clip-path="url(#clip0_436_773)">
<rect width="86" height="24" transform="translate(0.599609)" fill="#F5F5F5"/>
<g id="Layer 2">
<g id="Group">
<path id="Vector" d="M9.91295 3.97266V10.7424H3.5978V3.97266H0.599609V20.1327H3.5978V13.5828H9.91295V20.1327H12.9111V3.97266H9.91295Z" fill="#33475B"/>
<path id="Vector_2" d="M22.5068 14.9089C22.5068 15.5566 22.2455 16.1777 21.7804 16.6356C21.3152 17.0936 20.6843 17.3508 20.0265 17.3508C19.3686 17.3508 18.7377 17.0936 18.2726 16.6356C17.8074 16.1777 17.5461 15.5566 17.5461 14.9089V7.9873H14.7021V14.9089C14.7021 16.2978 15.2626 17.6298 16.2601 18.6119C17.2576 19.5939 18.6106 20.1457 20.0213 20.1457C21.4321 20.1457 22.785 19.5939 23.7826 18.6119C24.7801 17.6298 25.3405 16.2978 25.3405 14.9089V7.9873H22.5068V14.9089Z" fill="#33475B"/>
<path id="Vector_3" d="M43.5775 8.70035C43.5775 7.28161 44.5308 6.83183 45.5753 6.83183C46.417 6.83183 47.529 7.46238 48.2562 8.22743L50.1189 6.06678C49.189 4.82882 47.3028 3.97266 45.7589 3.97266C42.674 3.97266 40.4427 5.75151 40.4427 8.70035C40.4427 14.1714 47.2352 12.4359 47.2352 15.4976C47.2352 16.442 46.3039 17.2764 45.2374 17.2764C43.5554 17.2764 43.0104 16.4665 42.2378 15.6104L40.1709 17.7262C41.493 19.3243 43.1236 20.1356 45.0773 20.1356C48.0079 20.1356 50.3656 18.3351 50.3656 15.5207C50.3656 9.44659 43.5731 11.3339 43.5731 8.70035" fill="#33475B"/>
<path id="Vector_4" d="M85.5992 17.5512C83.9186 17.5512 83.4412 16.8353 83.4412 15.7391V10.887H86.0531V8.42844H83.4412V5.18457L80.5576 6.45869V16.3421C80.5576 18.8701 82.3292 20.1443 84.7589 20.1443C85.14 20.1511 85.5208 20.1211 85.8959 20.0546L86.5995 17.5049C86.2822 17.5266 85.9179 17.5483 85.5992 17.5483" fill="#33475B"/>
<path id="Vector_5" d="M33.3319 8.06813C31.9231 8.06813 30.9404 8.47018 29.99 9.38853V4.06934H27.1416V13.9282C27.1416 17.619 29.8519 20.1469 32.8971 20.1469C36.2757 20.1469 39.2475 17.5741 39.2475 14.109C39.2475 10.6872 36.5122 8.06958 33.3319 8.06958V8.06813ZM33.3143 17.3254C32.6751 17.3254 32.0502 17.1388 31.5188 16.7892C30.9873 16.4396 30.5731 15.9426 30.3285 15.3613C30.0839 14.7799 30.0199 14.1402 30.1446 13.523C30.2693 12.9058 30.5771 12.3389 31.0291 11.8939C31.481 11.4489 32.0569 11.1459 32.6838 11.0231C33.3107 10.9004 33.9605 10.9634 34.551 11.2042C35.1415 11.445 35.6463 11.8528 36.0014 12.376C36.3565 12.8993 36.546 13.5144 36.546 14.1437C36.546 14.9875 36.2055 15.7968 35.5995 16.3935C34.9934 16.9902 34.1714 17.3254 33.3143 17.3254Z" fill="#33475B"/>
<path id="Vector_6" d="M64.2592 13.9618C64.2592 10.4909 61.2933 7.92383 57.9088 7.92383C54.8636 7.92383 52.1533 10.4518 52.1533 14.1426V24.0072H55.0017V18.6808C55.9506 19.5977 56.9348 20.0012 58.3421 20.0012C61.5225 20.0012 64.2577 17.385 64.2577 13.9618H64.2592ZM61.5621 13.9271C61.5621 14.5564 61.3726 15.1715 61.0175 15.6947C60.6624 16.2179 60.1576 16.6258 59.5671 16.8666C58.9766 17.1074 58.3268 17.1704 57.6999 17.0476C57.073 16.9249 56.4972 16.6218 56.0452 16.1769C55.5932 15.7319 55.2854 15.165 55.1607 14.5478C55.036 13.9306 55.1 13.2909 55.3446 12.7095C55.5892 12.1281 56.0035 11.6312 56.5349 11.2816C57.0664 10.932 57.6912 10.7454 58.3304 10.7454C59.1875 10.7454 60.0095 11.0806 60.6156 11.6773C61.2216 12.274 61.5621 13.0832 61.5621 13.9271Z" fill="#33475B"/>
</g>
<path id="Vector_7" d="M73.4612 7.78787V4.97063C73.8394 4.79667 74.1596 4.52054 74.3846 4.17438C74.6095 3.82823 74.73 3.42628 74.7319 3.01535V2.95027C74.7319 2.37493 74.4998 1.82315 74.0865 1.41632C73.6733 1.00949 73.1128 0.780939 72.5284 0.780939H72.4623C71.8779 0.780939 71.3175 1.00949 70.9042 1.41632C70.491 1.82315 70.2589 2.37493 70.2589 2.95027V3.01535C70.2608 3.42628 70.3813 3.82823 70.6062 4.17438C70.8312 4.52054 71.1514 4.79667 71.5295 4.97063V7.78787C70.4426 7.95157 69.419 8.3951 68.5622 9.07356L60.7149 3.05584C60.7704 2.8574 60.8001 2.6528 60.803 2.44698C60.8039 1.96352 60.6591 1.49067 60.387 1.08823C60.1149 0.685791 59.7276 0.371847 59.2742 0.186108C58.8209 0.000369021 58.3217 -0.0488204 57.8399 0.0447614C57.3581 0.138343 56.9154 0.370492 56.5676 0.711844C56.2199 1.0532 55.9828 1.48842 55.8863 1.96245C55.7898 2.43649 55.8383 2.92805 56.0256 3.37496C56.2129 3.82186 56.5307 4.20404 56.9386 4.47314C57.3466 4.74224 57.8265 4.88618 58.3175 4.88675C58.7469 4.88486 59.1683 4.77217 59.5397 4.55991L67.268 10.4793C66.5736 11.5118 66.2113 12.7264 66.2283 13.9647C66.2454 15.203 66.6409 16.4075 67.3635 17.4211L65.0131 19.7351C64.8231 19.6753 64.6251 19.6436 64.4255 19.6411C64.0224 19.6414 63.6284 19.7593 63.2933 19.98C62.9582 20.2007 62.6971 20.5142 62.543 20.8809C62.3889 21.2477 62.3486 21.6511 62.4273 22.0404C62.506 22.4296 62.7002 22.7872 62.9853 23.0678C63.2703 23.3485 63.6335 23.5396 64.0289 23.6171C64.4243 23.6946 64.8341 23.655 65.2066 23.5033C65.5791 23.3515 65.8976 23.0944 66.1217 22.7646C66.3459 22.4347 66.4657 22.0468 66.466 21.6499C66.4634 21.4534 66.4313 21.2585 66.3705 21.0714L68.6959 18.782C69.4541 19.3565 70.3359 19.7525 71.2736 19.9397C72.2113 20.1268 73.1801 20.1003 74.1057 19.8619C75.0314 19.6236 75.8893 19.1799 76.6139 18.5647C77.3385 17.9495 77.9105 17.1793 78.286 16.3129C78.6615 15.4465 78.8306 14.507 78.7804 13.5664C78.7302 12.6257 78.462 11.7088 77.9963 10.886C77.5306 10.0631 76.8798 9.35614 76.0937 8.81913C75.3077 8.28212 74.4072 7.92936 73.4612 7.78787ZM72.4976 17.0523C71.8615 17.0518 71.2399 16.8656 70.7112 16.5173C70.1826 16.169 69.7707 15.6742 69.5276 15.0955C69.2846 14.5168 69.2212 13.8801 69.3455 13.266C69.4699 12.6518 69.7764 12.0878 70.2262 11.6451C70.6761 11.2023 71.2492 10.9009 71.8731 10.7787C72.497 10.6566 73.1436 10.7193 73.7313 10.9589C74.319 11.1984 74.8214 11.6042 75.1749 12.1248C75.5285 12.6454 75.7173 13.2574 75.7176 13.8837C75.7176 14.7237 75.3787 15.5293 74.7753 16.1232C74.172 16.7172 73.3537 17.0509 72.5005 17.0509" fill="#FF7A59"/>
</g>
</g>
<defs>
<clipPath id="clip0_436_773">
<rect width="86" height="24" fill="white" transform="translate(0.599609)"/>
</clipPath>
</defs>
</svg>
