<svg width="50" height="51" viewBox="0 0 50 51" fill="none" xmlns="http://www.w3.org/2000/svg">
<g id="Group 35704">
<circle id="Ellipse 3" cx="25.0635" cy="25.6035" r="24.8506" fill="#FFB000"/>
<path id="Vector" d="M20.4671 24.9779C21.7524 24.9779 22.985 24.461 23.8938 23.541C24.8027 22.6211 25.3132 21.3733 25.3132 20.0722C25.3132 18.7711 24.8027 17.5233 23.8938 16.6033C22.985 15.6834 21.7524 15.1665 20.4671 15.1665C19.1818 15.1665 17.9492 15.6834 17.0403 16.6033C16.1315 17.5233 15.6209 18.7711 15.6209 20.0722C15.6209 21.3733 16.1315 22.6211 17.0403 23.541C17.9492 24.461 19.1818 24.9779 20.4671 24.9779ZM28.9471 32.744C29.7374 33.0715 30.7424 33.2798 32.0218 33.2798C37.9863 33.2798 37.9863 28.7515 37.9863 28.7515C37.9863 28.1513 37.7508 27.5756 37.3317 27.151C36.9126 26.7265 36.344 26.4877 35.7511 26.4873H28.8502C29.4362 27.2058 29.7881 28.1251 29.7881 29.1289V29.6662C29.785 29.7933 29.7766 29.9202 29.7627 30.0466C29.6621 30.9897 29.3844 31.905 28.9471 32.744ZM35.7511 21.2043C35.7511 22.2051 35.3583 23.1649 34.6592 23.8726C33.9601 24.5803 33.012 24.9779 32.0233 24.9779C31.0346 24.9779 30.0864 24.5803 29.3873 23.8726C28.6882 23.1649 28.2955 22.2051 28.2955 21.2043C28.2955 20.2035 28.6882 19.2436 29.3873 18.5359C30.0864 17.8282 31.0346 17.4307 32.0233 17.4307C33.012 17.4307 33.9601 17.8282 34.6592 18.5359C35.3583 19.2436 35.7511 20.2035 35.7511 21.2043ZM12.6387 29.5062C12.6387 28.7056 12.9529 27.9377 13.5122 27.3716C14.0714 26.8054 14.83 26.4873 15.6209 26.4873H25.3132C26.1042 26.4873 26.8627 26.8054 27.422 27.3716C27.9813 27.9377 28.2955 28.7056 28.2955 29.5062C28.2955 29.5062 28.2955 35.544 20.4671 35.544C12.6387 35.544 12.6387 29.5062 12.6387 29.5062Z" fill="white"/>
</g>
</svg>
