<svg width="62" height="61" viewBox="0 0 62 61" fill="none" xmlns="http://www.w3.org/2000/svg">
<g id="Group 42">
<circle id="Ellipse 2" cx="30.7884" cy="30.5003" r="30.3333" fill="#FFB000"/>
<path id="Vector" d="M26.4709 20.5023C28.3925 17.0564 29.3525 15.3335 30.7887 15.3335C32.225 15.3335 33.185 17.0564 35.1066 20.5023L35.604 21.3941C36.15 22.3739 36.423 22.8638 36.8477 23.1868C37.2723 23.5099 37.8032 23.6297 38.8648 23.8693L39.8294 24.0877C43.5603 24.9325 45.4242 25.3541 45.8686 26.7813C46.3115 28.207 45.0405 29.6949 42.4971 32.6691L41.8389 33.438C41.117 34.2828 40.7545 34.7059 40.5922 35.2277C40.43 35.7509 40.4846 36.3151 40.5938 37.442L40.6939 38.4688C41.0776 42.4379 41.2702 44.4217 40.1084 45.3029C38.9467 46.1856 37.1995 45.3803 33.7083 43.7726L32.8028 43.357C31.8109 42.899 31.315 42.6715 30.7887 42.6715C30.2625 42.6715 29.7665 42.899 28.7731 43.357L27.8707 43.7726C24.3779 45.3803 22.6308 46.1841 21.4706 45.3044C20.3073 44.4217 20.4999 42.4379 20.8836 38.4688L20.9837 37.4435C21.0929 36.3151 21.1475 35.7509 20.9837 35.2292C20.823 34.7059 20.4605 34.2828 19.7386 33.4395L19.0803 32.6691C16.537 29.6964 15.266 28.2085 15.7089 26.7813C16.1532 25.3541 18.0187 24.931 21.7496 24.0877L22.7142 23.8693C23.7743 23.6297 24.3036 23.5099 24.7298 23.1868C25.1545 22.8638 25.4274 22.3739 25.9734 21.3941L26.4709 20.5023Z" fill="white"/>
</g>
</svg>
