<svg width="86" height="155" viewBox="0 0 86 155" fill="none" xmlns="http://www.w3.org/2000/svg">
<path id="Vector 63" d="M84.4167 151.502C85.2438 151.456 85.9516 152.089 85.9976 152.917C86.0435 153.744 85.4103 154.452 84.5831 154.497L84.4167 151.502ZM69.5944 10.4749C70.1606 11.0797 70.1293 12.0289 69.5245 12.5951L59.6692 21.8213C59.0644 22.3875 58.1152 22.3562 57.549 21.7514C56.9829 21.1466 57.0142 20.1974 57.6189 19.6312L66.3792 11.4301L58.1781 2.66987C57.612 2.0651 57.6433 1.11587 58.248 0.549698C58.8528 -0.0164657 59.802 0.0148309 60.3682 0.619603L69.5944 10.4749ZM84.5831 154.497C83.5161 154.557 82.4592 154.601 81.4126 154.63L81.3283 151.632C82.3472 151.603 83.3767 151.56 84.4167 151.502L84.5831 154.497ZM75.255 154.632C73.1243 154.571 71.0393 154.446 68.9999 154.261L69.2722 151.273C71.2482 151.453 73.2708 151.574 75.3404 151.633L75.255 154.632ZM62.8419 153.494C60.7663 153.164 58.7427 152.767 56.771 152.307L57.4526 149.386C59.3536 149.829 61.3069 150.212 63.3129 150.531L62.8419 153.494ZM50.7185 150.648C48.6992 150.008 46.7409 149.298 44.8437 148.522L45.9799 145.745C47.8008 146.49 49.6821 147.173 51.6244 147.788L50.7185 150.648ZM39.1763 145.917C37.3009 144.955 35.4942 143.924 33.7559 142.829L35.355 140.291C37.0184 141.339 38.7483 142.326 40.5452 143.247L39.1763 145.917ZM28.6171 139.258C26.9421 137.978 25.3426 136.633 23.8182 135.23L25.8501 133.023C27.3077 134.364 28.8372 135.65 30.4391 136.875L28.6171 139.258ZM19.4114 130.785C18.0044 129.231 16.6763 127.622 15.4267 125.964L17.8222 124.158C19.0186 125.745 20.2896 127.285 21.6355 128.772L19.4114 130.785ZM11.887 120.811C10.7806 119.039 9.75442 117.225 8.80793 115.373L11.479 114.008C12.3872 115.784 13.3713 117.524 14.4317 119.222L11.887 120.811ZM6.19882 109.698C5.40729 107.77 4.69584 105.812 4.06396 103.831L6.92211 102.919C7.52978 104.825 8.21365 106.707 8.97405 108.559L6.19882 109.698ZM2.40414 97.8143C1.92963 95.7868 1.53467 93.7426 1.21879 91.6884L4.18393 91.2324C4.48817 93.2109 4.86848 95.1791 5.3252 97.1307L2.40414 97.8143ZM0.507001 85.4908C0.348404 83.4141 0.269112 81.3339 0.268699 79.2572L3.2687 79.2566C3.26909 81.2574 3.34549 83.2615 3.4983 85.2623L0.507001 85.4908ZM0.505288 73.0232C0.663953 70.9445 0.902304 68.8759 1.21997 66.8246L4.18463 67.2837C3.87891 69.2579 3.6494 71.2495 3.49659 73.2515L0.505288 73.0232ZM2.41769 60.6989C2.89947 58.6677 3.46195 56.6611 4.1048 54.6863L6.95746 55.6149C6.34031 57.5108 5.79987 59.4386 5.33669 61.3913L2.41769 60.6989ZM6.28825 48.8312C7.10166 46.9059 7.99705 45.0205 8.97411 43.1825L11.6231 44.5907C10.6886 46.3486 9.83126 48.1536 9.05173 49.9987L6.28825 48.8312ZM12.1657 37.7948C13.3145 36.0479 14.5458 34.3569 15.8593 32.7296L18.1937 34.614C16.9427 36.1638 15.7687 37.7759 14.6723 39.4432L12.1657 37.7948ZM20.0401 28.0532C21.5068 26.5719 23.0539 25.1615 24.6811 23.8297L26.5812 26.1512C25.0362 27.4158 23.5662 28.7558 22.1719 30.164L20.0401 28.0532ZM29.7408 20.1179C31.4742 18.9828 33.2821 17.9294 35.1639 16.9646L36.5326 19.6342C34.7456 20.5503 33.0295 21.5504 31.3843 22.6277L29.7408 20.1179ZM40.886 14.399C42.8059 13.6549 44.7911 12.9968 46.8409 12.4305L47.6398 15.3221C45.6859 15.862 43.796 16.4886 41.9701 17.1963L40.886 14.399ZM52.9685 11.05C54.9805 10.695 57.047 10.4234 59.1674 10.2396L59.4265 13.2284C57.3924 13.4048 55.4134 13.665 53.4897 14.0043L52.9685 11.05ZM65.3683 9.9571C66.4166 9.95109 67.4768 9.96552 68.5488 10.0009L68.4499 12.9992C67.4162 12.9652 66.3947 12.9513 65.3855 12.9571L65.3683 9.9571Z" fill="white"/>
</svg>
